# xmcd
#
# Track frame offsets:
#	150
#	15615
#	32180
#	44625
#	60207
#	73000
#	88100
#	100367
#	112967
#	129260
#	142092
#	158950
#	174510
#	195517
#	210362
#	226950
#	242360
#	254080
#
# Disc length: 3599 seconds
#
# Revision: 1
# Processed by: cddbd v1.5.1PL0 Copyright (c) Steve Scherf et al.
# Submitted via: CDex 1.50Beta5
#
DISCID=f50e0d12
DTITLE=スタンリーブラック・オーケストラ - コンチネンタル・タンゴ
DYEAR=1900
DGENRE=
TTITLE0=ジェラシー
TTITLE1=小さな喫茶店
TTITLE2=ポエマ
TTITLE3=ヘルナンドス・ハイダウェイ
TTITLE4=おおドンナ・クララ
TTITLE5=オレ・グアパ
TTITLE6=月下の蘭
TTITLE7=バラのタンゴ
TTITLE8=碧空
TTITLE9=ブルー・タンゴ
TTITLE10=黒い瞳
TTITLE11=真珠採り
TTITLE12=夜のバイオリン
TTITLE13=夜のタンゴ
TTITLE14=イタリーの庭
TTITLE15=奥様お手をどうぞ
TTITLE16=ヴィオレッタにささげし歌
TTITLE17=ロジータ
EXTD=
EXTT0=
EXTT1=
EXTT2=
EXTT3=
EXTT4=
EXTT5=
EXTT6=
EXTT7=
EXTT8=
EXTT9=
EXTT10=
EXTT11=
EXTT12=
EXTT13=
EXTT14=
EXTT15=
EXTT16=
EXTT17=
PLAYORDER=
